<svg xmlns="http://www.w3.org/2000/svg" width="47" height="43" viewBox="0 0 47 43"><path fill="#4be1c8" d="M19 19.6a4.6 4.6 0 1 0 9.2-.01 4.6 4.6 0 0 0-9.2.01zm4.59-3.17a3.17 3.17 0 1 1 0 6.34 3.17 3.17 0 0 1 0-6.34zM19.41 14.28l.6-.38L11.41 0l-.61.38A22.7 22.7 0 0 0 0 19.79v.71h16.34v-.71a6.45 6.45 0 0 1 3.07-5.51zm-8.46-12.3l7.11 11.48a7.9 7.9 0 0 0-3.12 5.61H1.44a21.26 21.26 0 0 1 9.51-17.09z"/><path fill="#4be1c8" d="M35.22.38L34.61 0 26 13.89l.61.38a6.45 6.45 0 0 1 3.06 5.51v.72l16.34.01v-.71A22.67 22.67 0 0 0 35.22.38zm-4.15 18.69a7.85 7.85 0 0 0-3.12-5.61l7.12-11.48a21.27 21.27 0 0 1 9.5 17.1zM26.66 25.36a6.58 6.58 0 0 1-6.3.1l-.63-.34L12 39.52l.63.34a22.84 22.84 0 0 0 22.2-.34l.62-.36L27.28 25zm-3.24 15.78c-3.28 0-6.54-.76-9.48-2.21l6.39-11.9c2.02.86 4.42.82 6.41-.1l6.75 11.69a21.42 21.42 0 0 1-10.07 2.52z"/></svg>