<svg xmlns="http://www.w3.org/2000/svg" width="49" height="48" viewBox="0 0 49 48"><path fill="#02d4b1" d="M24.31 40.62c9.55 0 17.31-7.76 17.31-17.31C41.62 13.77 33.86 6 24.31 6A17.34 17.34 0 0 0 7 23.31c0 9.55 7.77 17.31 17.31 17.31zm0-33.05c8.68 0 15.74 7.06 15.74 15.74s-7.06 15.74-15.74 15.74A15.76 15.76 0 0 1 8.57 23.31c0-8.68 7.06-15.74 15.74-15.74z"/><path fill="#02d4b1" d="M24.79 12.15c.43 0 .78-.36.78-.79V9.79a.78.78 0 1 0-1.57 0v1.57c0 .43.35.79.79.79zM24.79 35a.79.79 0 0 0-.79.79v1.57c0 .43.35.79.79.79.43 0 .78-.36.78-.79v-1.57a.78.78 0 0 0-.78-.79zM36.79 24.57h1.57c.43 0 .79-.35.79-.78a.8.8 0 0 0-.79-.79h-1.57a.79.79 0 1 0 0 1.57zM11.36 23H9.79a.79.79 0 1 0 0 1.57h1.57c.43 0 .79-.35.79-.78a.8.8 0 0 0-.79-.79zM15.78 32.31a.8.8 0 0 0 .56-.23l6.51-6.5a3.13 3.13 0 1 0 2.37-5.74v-4.05a.78.78 0 1 0-1.57 0v4.04a3.1 3.1 0 0 0-1.91 4.63l-6.51 6.51c-.31.3-.31.8 0 1.11.15.15.35.23.55.23zm8.66-11.01a1.57 1.57 0 1 1 0 3.15 1.57 1.57 0 0 1 0-3.15z"/><path fill="#02d4b1" d="M8.85 7.87h6.23a.8.8 0 0 0 .79-.79.79.79 0 0 0-.79-.78h-4.17a21.81 21.81 0 0 1 13.61-4.73 22.07 22.07 0 0 1 22.04 22.04c0 .43.35.78.78.78.44 0 .79-.35.79-.78A23.63 23.63 0 0 0 24.52 0 23.5 23.5 0 0 0 9.57 5.36V.79A.78.78 0 1 0 8 .79v7.08h.85zM7.24 39.22a.79.79 0 0 0 .55 1.35c.19 0 .39-.07.54-.22.31-.3.33-.79.02-1.11a.79.79 0 0 0-1.11-.02zM7.41 37.31a.77.77 0 0 0-1.1-.14.77.77 0 0 0-.14 1.1c.15.2.39.3.62.3.17 0 .34-.05.49-.16.33-.27.4-.76.13-1.1zM11.14 42.34a.79.79 0 0 0 .2 1.1c.14.09.29.13.45.13.25 0 .49-.12.64-.34a.78.78 0 1 0-1.29-.89zM5.46 35.37a.8.8 0 0 0-1.09-.25.78.78 0 0 0-.25 1.08.8.8 0 0 0 .67.37c.14 0 .28-.03.41-.11a.8.8 0 0 0 .26-1.09zM1.79 25.57h.03a.78.78 0 0 0 .75-.81.79.79 0 1 0-.78.81zM14.16 43.1a.8.8 0 0 0-1.07.31.8.8 0 0 0 .33 1.07c.11.07.24.1.37.1.28 0 .55-.15.69-.42a.77.77 0 0 0-.32-1.06zM1.9 27.57a.8.8 0 0 0 .67-.89.8.8 0 0 0-.89-.67.78.78 0 0 0 .11 1.56h.11zM4.5 33.44a.8.8 0 0 0-1.06-.36.78.78 0 0 0 .35 1.49c.11 0 .23-.02.34-.07a.8.8 0 0 0 .37-1.06zM1.98 29.55a.8.8 0 0 0 .57-.96.78.78 0 0 0-.96-.56.77.77 0 0 0-.56.95c.08.35.4.6.76.6l.19-.03zM3.52 31.52a.78.78 0 1 0-1.47.54c.11.32.42.51.73.51a.9.9 0 0 0 .28-.04c.41-.15.61-.6.46-1.01zM9.19 40.28a.8.8 0 0 0 .09 1.11.8.8 0 0 0 1.11-.09.79.79 0 0 0-.09-1.11.79.79 0 0 0-1.11.09zM44.18 34.1a.8.8 0 0 0-1.08.3h.01a.77.77 0 0 0 .67 1.17.78.78 0 0 0 .4-1.47zM42.15 36.33a.79.79 0 0 0 .63 1.25.8.8 0 0 0 .65-.33.8.8 0 0 0-.18-1.11.8.8 0 0 0-1.1.19zM41.2 38.27a.79.79 0 0 0 .06 1.11.8.8 0 0 0 .52.19.79.79 0 0 0 .53-1.37.78.78 0 0 0-1.11.07zM39.26 40.21a.77.77 0 0 0-.05 1.11c.16.17.37.25.58.25.19 0 .38-.07.53-.2.32-.3.34-.8.05-1.11a.77.77 0 0 0-1.11-.05zM37.31 41.16a.8.8 0 0 0-.15 1.1c.15.21.38.31.63.31a.7.7 0 0 0 .46-.15.79.79 0 1 0-.94-1.26zM46.87 25a.8.8 0 0 0-.87.71.8.8 0 0 0 .71.86h.08c.4 0 .74-.3.78-.71a.78.78 0 0 0-.7-.86zM45.11 32.07a.78.78 0 0 0-1.04.4c-.18.4 0 .86.4 1.04.1.04.21.07.32.07a.79.79 0 0 0 .32-1.51zM46.95 28.02a.77.77 0 0 0-.93.6c-.1.43.18.85.6.93a.77.77 0 0 0 .93-.6.77.77 0 0 0-.6-.93zM46.02 30.04a.76.76 0 0 0-.98.51c-.14.41.09.86.5.99.08.02.17.03.25.03.33 0 .63-.21.74-.54a.77.77 0 0 0-.51-.99zM16.09 44.06a.79.79 0 0 0-1.03.42.8.8 0 0 0 .42 1.04c.1.03.21.05.31.05a.79.79 0 0 0 .3-1.51zM24.77 46a.79.79 0 0 0-.77.8c.01.44.36.77.79.77h.01c.44 0 .78-.36.77-.8a.78.78 0 0 0-.8-.77zM19.93 45.01a.8.8 0 0 0-.92.63c-.08.43.2.84.63.92l.14.01a.8.8 0 0 0 .78-.64.8.8 0 0 0-.63-.92zM22.85 46a.79.79 0 0 0-.85.72.8.8 0 0 0 .72.86v-.01l.06.01a.8.8 0 0 0 .07-1.58zM18.01 45.03a.8.8 0 0 0-.98.52.8.8 0 0 0 .53.99l.23.03c.33 0 .65-.22.75-.56a.78.78 0 0 0-.53-.98zM35.38 42.11a.8.8 0 0 0-.27 1.08c.15.25.41.38.68.38a.78.78 0 0 0 .67-1.19.79.79 0 0 0-1.08-.27zM31.53 44.04a.79.79 0 0 0-.49 1c.11.33.42.53.74.53.09 0 .18-.02.26-.04a.79.79 0 0 0 .49-1 .78.78 0 0 0-1-.49zM33.46 44.08a.78.78 0 0 0 .33 1.49.79.79 0 0 0 .71-1.12.77.77 0 0 0-1.04-.37zM29.61 45.02a.78.78 0 0 0-.59.94c.08.37.41.61.77.61.06 0 .11 0 .18-.02a.8.8 0 0 0 .59-.94.79.79 0 0 0-.95-.59zM26.69 45.01a.77.77 0 0 0-.68.87c.04.4.38.69.78.69l.09-.01v.01a.78.78 0 0 0 .68-.88.77.77 0 0 0-.87-.68z"/></svg>