<svg xmlns="http://www.w3.org/2000/svg" width="49.08" height="49.2" viewBox="0 0 49.08 49.2"><path fill="#02d4b1" d="M1.06 11.83l9.82 36.64c.09.31.43.64.89.52l36.64-9.82c.37-.1.62-.52.52-.89L39.1 1.64a.76.76 0 0 0-.9-.52L1.59 10.94a.76.76 0 0 0-.52.89zm14.99-3.26l2.83 10.57c.1.39.5.62.89.52l7.05-1.89c.39-.1.62-.5.52-.89L24.5 6.31l13.39-3.59 9.44 35.23-13.4 3.59-2.82-10.57a.73.73 0 0 0-.9-.52l-7.04 1.89a.72.72 0 0 0-.51.89l2.83 10.57-13.4 3.59-9.43-35.23zm1.4-.37l5.64-1.52 2.65 9.87-5.64 1.51zM29.9 32.05l2.64 9.87-5.63 1.51-2.65-9.87z"/><path fill="none" stroke="#02d4b1" stroke-miterlimit="50" stroke-width=".2" d="M1.06 11.83l9.82 36.64c.09.31.43.64.89.52l36.64-9.82c.37-.1.62-.52.52-.89L39.1 1.64a.76.76 0 0 0-.9-.52L1.59 10.94a.76.76 0 0 0-.52.89zm14.99-3.26l2.83 10.57c.1.39.5.62.89.52l7.05-1.89c.39-.1.62-.5.52-.89L24.5 6.31l13.39-3.59 9.44 35.23-13.4 3.59-2.82-10.57a.73.73 0 0 0-.9-.52l-7.04 1.89a.72.72 0 0 0-.51.89l2.83 10.57-13.4 3.59-9.43-35.23zm1.4-.37l5.64-1.52 2.65 9.87-5.64 1.51zM29.9 32.05l2.64 9.87-5.63 1.51-2.65-9.87z"/></svg>